<?xml version="1.0" standalone="no"?><!DOCTYPE svg PUBLIC "-//W3C//DTD SVG 1.1//EN" "http://www.w3.org/Graphics/SVG/1.1/DTD/svg11.dtd"><svg t="1682921381149" class="icon" viewBox="0 0 1024 1024" version="1.1" xmlns="http://www.w3.org/2000/svg" p-id="1228" xmlns:xlink="http://www.w3.org/1999/xlink" width="200" height="200"><path d="M799.68 686.88V386.56c0-12-8-27.68-19.36-31.36l-241.6-141.44V122.88h-42.88v90.88l-241.28 137.92c-7.2 3.36-13.28 8.64-18.08 15.52-3.2 5.92-4.8 12.64-4.96 19.36v300.32l-80.32 43.36 26.56 37.28 75.04-42.24 119.84 68.64 124.64 69.12c5.44 4 11.84 6.08 18.24 6.08 6.24 0 12.48-1.92 17.6-5.76l241.6-141.6 73.76 40.16 24.48-33.44-73.28-41.6z m-312.96 112.96l-203.2-110.08-3.2-255.68 206.4 118.24v247.52z m27.2-300.16L305.6 383.2l211.36-121.44 211.36 119.84-214.4 118.08z m236.8 178.24l-206.56 120V552.48l208.16-116.64-1.6 242.08z" fill="#2A2C2C" p-id="1229"></path></svg>